<svg width="600" height="360" viewBox="0 0 600 360" fill="none" xmlns="http://www.w3.org/2000/svg">
  <defs>
    <linearGradient id="bg-gradient" x1="32" y1="16" x2="568" y2="344" gradientUnits="userSpaceOnUse">
      <stop stop-color="#F5F7FF" />
      <stop offset="1" stop-color="#E5F2FF" />
    </linearGradient>
    <linearGradient id="signal-gradient" x1="300" y1="40" x2="300" y2="320" gradientUnits="userSpaceOnUse">
      <stop stop-color="#6E6BFF" />
      <stop offset="1" stop-color="#23A4E8" />
    </linearGradient>
  </defs>
  <rect width="600" height="360" rx="28" fill="url(#bg-gradient)" />
  <circle cx="84" cy="62" r="28" fill="#DDE7FF" />
  <circle cx="530" cy="296" r="34" fill="#D8F3FF" />
  <g opacity="0.92">
    <rect x="48" y="54" width="156" height="112" rx="18" fill="#FFFFFF" stroke="#CAD6F6" stroke-width="2" />
    <circle cx="94" cy="96" r="18" fill="#6E6BFF" />
    <circle cx="130" cy="92" r="14" fill="#9EA8FF" />
    <circle cx="154" cy="116" r="16" fill="#C5CBFF" />
    <rect x="78" y="128" width="96" height="10" rx="5" fill="#E8EEFF" />
    <rect x="78" y="146" width="72" height="10" rx="5" fill="#EEF4FF" />
  </g>
  <g opacity="0.96">
    <rect x="222" y="38" width="156" height="144" rx="22" fill="#FFFFFF" stroke="#C5D3F6" stroke-width="2" />
    <rect x="256" y="66" width="88" height="18" rx="9" fill="#E7F3FF" />
    <rect x="248" y="104" width="104" height="48" rx="16" fill="#F3F6FF" stroke="#D3DEF8" stroke-width="2" />
    <path d="M300 86V104" stroke="url(#signal-gradient)" stroke-width="6" stroke-linecap="round" />
    <path d="M284 102L300 118L316 102" stroke="url(#signal-gradient)" stroke-width="6" stroke-linecap="round" stroke-linejoin="round" />
    <circle cx="270" cy="128" r="7" fill="#6E6BFF" />
    <circle cx="300" cy="128" r="7" fill="#23A4E8" />
    <circle cx="330" cy="128" r="7" fill="#F2BF55" />
    <rect x="250" y="164" width="100" height="8" rx="4" fill="#EAF0FF" />
  </g>
  <g opacity="0.95">
    <rect x="396" y="54" width="156" height="112" rx="18" fill="#FFFFFF" stroke="#CAD6F6" stroke-width="2" />
    <rect x="438" y="78" width="72" height="44" rx="14" fill="#FFF3CE" />
    <path d="M454 104H494" stroke="#C89B18" stroke-width="6" stroke-linecap="round" />
    <path d="M446 134H504" stroke="#F0D98B" stroke-width="10" stroke-linecap="round" />
    <circle cx="474" cy="100" r="24" stroke="#E4BE54" stroke-width="4" />
  </g>
  <path d="M204 110H222" stroke="#6E6BFF" stroke-width="6" stroke-linecap="round" />
  <path d="M378 110H396" stroke="#6E6BFF" stroke-width="6" stroke-linecap="round" />
  <path d="M222 110L212 100" stroke="#6E6BFF" stroke-width="4" stroke-linecap="round" />
  <path d="M222 110L212 120" stroke="#6E6BFF" stroke-width="4" stroke-linecap="round" />
  <path d="M396 110L386 100" stroke="#6E6BFF" stroke-width="4" stroke-linecap="round" />
  <path d="M396 110L386 120" stroke="#6E6BFF" stroke-width="4" stroke-linecap="round" />
  <g opacity="0.96">
    <rect x="94" y="212" width="412" height="102" rx="24" fill="#FFFFFF" stroke="#CAD6F6" stroke-width="2" />
    <rect x="122" y="236" width="92" height="14" rx="7" fill="#E9EEFF" />
    <rect x="122" y="262" width="64" height="14" rx="7" fill="#EEF4FF" />
    <circle cx="244" cy="255" r="12" fill="#6E6BFF" />
    <circle cx="290" cy="255" r="12" fill="#23A4E8" />
    <circle cx="336" cy="255" r="12" fill="#8DC9FF" />
    <path d="M256 255H278" stroke="#6E6BFF" stroke-width="5" stroke-linecap="round" />
    <path d="M302 255H324" stroke="#23A4E8" stroke-width="5" stroke-linecap="round" />
    <path d="M352 255H406" stroke="#23A4E8" stroke-width="5" stroke-linecap="round" stroke-dasharray="8 8" />
    <path d="M406 255L394 243" stroke="#23A4E8" stroke-width="4" stroke-linecap="round" />
    <path d="M406 255L394 267" stroke="#23A4E8" stroke-width="4" stroke-linecap="round" />
    <rect x="430" y="236" width="46" height="38" rx="12" fill="#DFF5FF" />
    <rect x="440" y="246" width="26" height="8" rx="4" fill="#23A4E8" />
    <rect x="440" y="260" width="18" height="8" rx="4" fill="#9EDDFC" />
  </g>
</svg>
