<svg width="600" height="360" viewBox="0 0 600 360" fill="none" xmlns="http://www.w3.org/2000/svg">
  <defs>
    <linearGradient id="bg-gradient" x1="0" y1="0" x2="600" y2="360" gradientUnits="userSpaceOnUse">
      <stop stop-color="#F2F4FF" />
      <stop offset="1" stop-color="#E3F0FF" />
    </linearGradient>
    <linearGradient id="accent" x1="0" y1="0" x2="1" y2="1">
      <stop offset="0" stop-color="#5B5BFF" />
      <stop offset="1" stop-color="#1EA4E5" />
    </linearGradient>
  </defs>
  <rect width="600" height="360" rx="28" fill="url(#bg-gradient)" />
  <g opacity="0.95">
    <rect x="50" y="40" width="180" height="120" rx="16" fill="#FFFFFF" stroke="#CAD4F8" stroke-width="2" />
    <circle cx="140" cy="80" r="16" fill="url(#accent)" />
    <text x="140" y="118" text-anchor="middle" font-family="Inter, sans-serif" font-size="14" fill="#2F3E6F">Community</text>
  </g>
  <g opacity="0.95">
    <rect x="230" y="40" width="180" height="120" rx="16" fill="#FFFFFF" stroke="#CAD4F8" stroke-width="2" />
    <path d="M320 60L320 110" stroke="url(#accent)" stroke-width="4" stroke-linecap="round" />
    <path d="M308 70L320 60L332 70" fill="none" stroke="url(#accent)" stroke-width="4" stroke-linecap="round" stroke-linejoin="round" />
    <text x="320" y="118" text-anchor="middle" font-family="Inter, sans-serif" font-size="14" fill="#2F3E6F">Fiber Link</text>
  </g>
  <g opacity="0.95">
    <rect x="410" y="40" width="140" height="120" rx="16" fill="#FFFFFF" stroke="#CAD4F8" stroke-width="2" />
    <circle cx="480" cy="80" r="20" fill="#F5D36B" />
    <text x="480" y="118" text-anchor="middle" font-family="Inter, sans-serif" font-size="14" fill="#2F3E6F">Payouts</text>
  </g>
  <path d="M230 100H410" stroke="#4D5DE0" stroke-width="6" stroke-linecap="round" />
  <path d="M470 100L520 100" stroke="#4D5DE0" stroke-width="6" stroke-linecap="round" />
  <path d="M520 100L508 90L518 100L508 110" fill="none" stroke="#4D5DE0" stroke-width="3" stroke-linecap="round" stroke-linejoin="round" />
  <rect x="110" y="190" width="380" height="130" rx="24" fill="#FFFFFF" stroke="#CAD4F8" stroke-width="2" />
  <text x="300" y="220" text-anchor="middle" font-family="Inter, sans-serif" font-size="20" fill="#2F3E6F" font-weight="600">Tracked Actions → Settlement</text>
  <text x="300" y="250" text-anchor="middle" font-family="Inter, sans-serif" font-size="14" fill="#4E5C83">Contributions, verifications, and updates feed a single ledger for payouts.</text>
  <line x1="300" y1="265" x2="300" y2="320" stroke="#1EA4E5" stroke-width="4" stroke-dasharray="6 6" />
  <rect x="260" y="320" width="80" height="16" rx="8" fill="#1EA4E5" />
  <text x="300" y="332" text-anchor="middle" font-family="Inter, sans-serif" font-size="12" fill="#FFFFFF">Settlement Layer</text>
</svg>
